<?xml version="1.0" encoding="UTF-8"?><svg id="uuid-446dc561-15f9-4eb8-8b7d-831da2342679" xmlns="http://www.w3.org/2000/svg" xmlns:xlink="http://www.w3.org/1999/xlink" viewBox="0 0 1065.831 1080"><defs><style>.uuid-f4d7e352-2a97-4344-8b9b-24963829768a{fill:url(#uuid-54ed7b77-33e9-4145-8c73-9fabad3eb161);}</style><linearGradient id="uuid-54ed7b77-33e9-4145-8c73-9fabad3eb161" x1="-537.892" y1="1079.481" x2="-534.802" y2="1076.494" gradientTransform="translate(133563.296 271447.262) scale(247.995 -251.292)" gradientUnits="userSpaceOnUse"><stop offset="0" stop-color="#e44d95"/><stop offset=".556" stop-color="#505ee2"/><stop offset="1" stop-color="#021510"/></linearGradient></defs><g id="uuid-6fa5f9ce-d5a1-4624-b313-e43b7d621188"><path id="uuid-e064da24-6ec9-45a3-9810-be75ae97e998" class="uuid-f4d7e352-2a97-4344-8b9b-24963829768a" d="m974.519,859.592l-59.825,61.399c-105.481,105.481-244.023,157.434-380.991,157.434v1.574c-138.542-1.574-277.085-53.528-382.566-159.009h0C69.271,837.551,17.318,733.644,0,625.015h181.05c14.169,62.974,47.23,122.799,96.035,170.029v1.574c69.271,70.845,163.732,105.481,256.618,105.481h0c66.122,0,130.671-17.318,187.347-53.528L91.312,218.834l59.825-61.399C256.618,53.528,395.16,0,533.703,0h0c136.968,0,275.51,51.953,380.991,157.434h0c83.44,83.44,135.394,188.921,151.137,295.977h-179.475c-15.743-61.399-47.23-122.799-96.035-170.029h0c-70.845-72.42-165.306-107.055-256.618-107.055h0c-66.122,0-132.245,18.892-188.921,53.528l629.738,629.737Z"/></g></svg>