<?xml version="1.0" encoding="UTF-8"?><svg id="uuid-791bb3cd-2185-4084-bac0-74bb60c650a7" xmlns="http://www.w3.org/2000/svg" xmlns:xlink="http://www.w3.org/1999/xlink" viewBox="0 0 619.988 155.621"><defs><style>.uuid-bc07f0a2-1bb9-41b5-8672-5985d8d58d7d{fill:url(#uuid-ea96f9cb-f715-40ed-ba5d-b38a27d9a486);}</style><linearGradient id="uuid-ea96f9cb-f715-40ed-ba5d-b38a27d9a486" x1="-647.531" y1="561.154" x2="-647.272" y2="560.169" gradientTransform="translate(401722.92 87339.144) scale(619.988 -155.621)" gradientUnits="userSpaceOnUse"><stop offset="0" stop-color="#e44d95"/><stop offset=".556" stop-color="#505ee2"/><stop offset="1" stop-color="#021510"/></linearGradient></defs><g id="uuid-dc799082-c1ec-4fba-9b32-851ccc2550e3"><path class="uuid-bc07f0a2-1bb9-41b5-8672-5985d8d58d7d" d="m140.422,123.861l-8.62,8.847c-15.199,15.199-35.162,22.685-54.898,22.685v.227c-19.963-.227-39.926-7.713-55.125-22.912h0C9.982,120.685,2.495,105.713,0,90.06h26.088c2.042,9.074,6.806,17.694,13.838,24.5v.227c9.982,10.208,23.593,15.199,36.977,15.199h0c9.528,0,18.829-2.495,26.995-7.713L13.157,31.532l8.62-8.847C36.977,7.713,56.94,0,76.903,0h0C96.639,0,116.602,7.486,131.801,22.685h0c12.023,12.023,19.509,27.222,21.778,42.648h-25.861c-2.269-8.847-6.806-17.694-13.838-24.5h0c-10.208-10.435-23.819-15.426-36.977-15.426h0c-9.528,0-19.056,2.722-27.222,7.713l90.741,90.741Zm102.31-64.653c10.208,0,18.602,8.394,18.602,18.602s-8.394,18.375-18.602,18.375-18.602-8.167-18.602-18.375,8.394-18.602,18.602-18.602Zm0-59.208c43.102,0,77.81,34.708,77.81,77.81,0,42.875-34.708,77.81-77.81,77.81s-77.81-34.935-77.81-77.81C164.922,34.708,199.63,0,242.732,0Zm0,129.986c29.037,0,52.176-23.366,52.176-52.176s-23.139-52.403-52.176-52.403-52.176,23.593-52.176,52.403,23.139,52.176,52.176,52.176Zm91.422-2.269V4.083h23.593v123.635h23.819l23.593,23.593h-47.412l-23.593-23.593ZM457.108,4.083h28.583l-41.287,88.926-13.838-29.945,26.542-58.982Zm-39.926,147.227l-.227-58.301h27.449l-.227,58.301h-26.995Zm13.384-88.246l-13.611,29.945L375.668,4.083h28.583l26.315,58.982Zm118.19-7.713l-23.593-13.838v109.797h-23.593V4.083h0l47.185,27.449v23.82h0Zm23.819,0v-23.819l47.412-27.449v23.82h0v123.408h-23.593V41.514l-23.82,13.838Zm0,0v95.959h-23.819V55.352h23.819Z"/></g></svg>